<?xml version="1.0" standalone="no"?>
<!DOCTYPE svg PUBLIC "-//W3C//DTD SVG 20010904//EN"
 "http://www.w3.org/TR/2001/REC-SVG-20010904/DTD/svg10.dtd">
<svg version="1.0" xmlns="http://www.w3.org/2000/svg"
 width="229.000000pt" height="79.000000pt" viewBox="0 0 229.000000 79.000000"
 preserveAspectRatio="xMidYMid meet">

<g transform="translate(0.000000,79.000000) scale(0.100000,-0.100000)"
fill="#000000" stroke="none">
<path d="M0 395 l0 -395 1145 0 1145 0 0 395 0 395 -1145 0 -1145 0 0 -395z
m555 306 c28 -16 62 -42 77 -57 27 -30 81 -124 74 -131 -2 -2 -44 4 -95 13
l-91 16 -5 37 c-4 20 -11 58 -16 84 -15 80 -16 80 56 38z m1400 -301 c0 -143
0 -145 -22 -148 -23 -3 -23 -3 -23 148 0 151 0 151 23 148 22 -3 22 -5 22
-148z m285 135 c0 -11 -12 -15 -50 -15 l-50 0 0 -135 0 -135 -25 0 -25 0 0
135 0 135 -50 0 c-38 0 -50 4 -50 15 0 13 21 15 125 15 104 0 125 -2 125 -15z
m-1752 -136 l3 -96 -51 -5 c-27 -3 -72 -3 -99 0 -45 4 -49 7 -55 34 -8 39 -8
97 0 137 l7 32 96 -3 96 -3 3 -96z m217 71 c23 -9 25 -15 25 -67 0 -32 -4 -63
-8 -69 -8 -12 -182 -37 -191 -28 -3 3 -6 46 -7 96 l-1 91 78 -7 c44 -4 90 -11
104 -16z m-530 -202 c39 -6 71 -12 72 -13 7 -4 33 -178 28 -183 -9 -9 -70 24
-110 59 -39 34 -79 91 -96 136 -9 23 -8 25 13 19 13 -3 55 -11 93 -18z m305
-43 c0 -13 -5 -58 -11 -99 l-11 -75 -44 -7 c-23 -3 -55 -2 -71 3 -30 10 -36
26 -48 139 l-7 64 96 0 c95 0 96 0 96 -25z"/>
</g>
</svg>
